G75*
G70*
%OFA0B0*%
%FSLAX24Y24*%
%IPPOS*%
%LPD*%
%AMOC8*
5,1,8,0,0,1.08239X$1,22.5*
%
%ADD10C,0.0680*%
%ADD11C,0.1852*%
%ADD12R,0.0138X0.0256*%
%ADD13R,0.1063X0.1063*%
%ADD14R,0.0256X0.0138*%
%ADD15R,0.0513X0.0474*%
%ADD16R,0.0474X0.0513*%
%ADD17R,0.0474X0.0867*%
%ADD18C,0.1261*%
%ADD19R,0.0980X0.2080*%
%ADD20C,0.1175*%
D10*
X001960Y010567D03*
X001960Y011567D03*
X001960Y012567D03*
X001960Y013567D03*
X001960Y014567D03*
X001960Y015567D03*
X001960Y016567D03*
X001960Y017567D03*
X001960Y018567D03*
X001960Y019567D03*
X025460Y019567D03*
X026460Y019567D03*
X026460Y018567D03*
X026460Y017567D03*
X026460Y016567D03*
X026460Y015567D03*
X026460Y014567D03*
X026460Y013567D03*
X026460Y012567D03*
X026460Y011567D03*
X026460Y010567D03*
X025460Y010567D03*
X025460Y011567D03*
X025460Y012567D03*
X025460Y013567D03*
X025460Y014567D03*
X025460Y015567D03*
X025460Y016567D03*
X025460Y017567D03*
X025460Y018567D03*
D11*
X025771Y022941D03*
X002149Y022941D03*
D12*
X020313Y016978D03*
X020510Y016978D03*
X020707Y016978D03*
X020903Y016978D03*
X021100Y016978D03*
X021297Y016978D03*
X021297Y015522D03*
X021100Y015522D03*
X020903Y015522D03*
X020707Y015522D03*
X020510Y015522D03*
X020313Y015522D03*
D13*
X020805Y016250D03*
D14*
X021533Y016348D03*
X021533Y016152D03*
X021533Y015955D03*
X021533Y015758D03*
X021533Y016545D03*
X021533Y016742D03*
X020077Y016742D03*
X020077Y016545D03*
X020077Y016348D03*
X020077Y016152D03*
X020077Y015955D03*
X020077Y015758D03*
D15*
X019140Y016152D03*
X018470Y016152D03*
X022220Y015955D03*
X022890Y015955D03*
X023180Y017915D03*
X023180Y018585D03*
X024055Y018585D03*
X024055Y017915D03*
X005265Y015750D03*
X004595Y015750D03*
X004595Y014750D03*
X005265Y014750D03*
D16*
X005265Y013750D03*
X004595Y013750D03*
X008294Y013790D03*
X008294Y014460D03*
X020313Y014290D03*
X020313Y014960D03*
D17*
X011837Y015547D03*
X011247Y015547D03*
X010656Y015547D03*
X010066Y015547D03*
X009475Y015547D03*
X008885Y015547D03*
X008294Y015547D03*
X007704Y015547D03*
X007113Y015547D03*
X006523Y015547D03*
X006523Y021453D03*
X007113Y021453D03*
X007704Y021453D03*
X008294Y021453D03*
X008885Y021453D03*
X009475Y021453D03*
X010066Y021453D03*
X010656Y021453D03*
X011247Y021453D03*
X011837Y021453D03*
D18*
X008845Y018697D03*
D19*
X010097Y023865D03*
X011837Y023865D03*
X013577Y023865D03*
D20*
X004525Y007000D03*
X012835Y007000D03*
M02*
