%
M48
M72
T01C0.0130
T02C0.0400
T03C0.0730
T04C0.1181
T05C0.1772
%
T01
X8294Y13750
X7700Y15625
X10660Y15625
X11230Y21375
X10730Y22125
X10105Y22500
X12605Y21375
X12980Y22000
X13355Y22500
X7105Y21375
X4575Y15750
X4575Y14750
X18480Y16152
X20313Y14250
X22855Y15955
T02
X25460Y15567
X25460Y16567
X26460Y16567
X26460Y15567
X26460Y14567
X26460Y13567
X26460Y12567
X26460Y11567
X26460Y10567
X25460Y10567
X25460Y11567
X25460Y12567
X25460Y13567
X25460Y14567
X25460Y17567
X25460Y18567
X26460Y18567
X26460Y17567
X26460Y19567
X25460Y19567
X1960Y19567
X1960Y18567
X1960Y17567
X1960Y16567
X1960Y15567
X1960Y14567
X1960Y13567
X1960Y12567
X1960Y11567
X1960Y10567
T03
X4525Y7000
X12835Y7000
T04
X8845Y18697
T05
X2149Y22941
X25771Y22941
M30
