G75*
G70*
%OFA0B0*%
%FSLAX24Y24*%
%IPPOS*%
%LPD*%
%AMOC8*
5,1,8,0,0,1.08239X$1,22.5*
%
%ADD10C,0.0000*%
D10*
X003487Y002923D02*
X003487Y020246D01*
X013723Y020246D01*
X013723Y010009D01*
X009393Y010009D01*
X009393Y005285D01*
X013723Y005285D01*
X013723Y002923D01*
X003487Y002923D01*
X004235Y003710D02*
X004237Y003751D01*
X004243Y003792D01*
X004253Y003832D01*
X004266Y003871D01*
X004283Y003908D01*
X004304Y003944D01*
X004328Y003978D01*
X004355Y004009D01*
X004384Y004037D01*
X004417Y004063D01*
X004451Y004085D01*
X004488Y004104D01*
X004526Y004119D01*
X004566Y004131D01*
X004606Y004139D01*
X004647Y004143D01*
X004689Y004143D01*
X004730Y004139D01*
X004770Y004131D01*
X004810Y004119D01*
X004848Y004104D01*
X004884Y004085D01*
X004919Y004063D01*
X004952Y004037D01*
X004981Y004009D01*
X005008Y003978D01*
X005032Y003944D01*
X005053Y003908D01*
X005070Y003871D01*
X005083Y003832D01*
X005093Y003792D01*
X005099Y003751D01*
X005101Y003710D01*
X005099Y003669D01*
X005093Y003628D01*
X005083Y003588D01*
X005070Y003549D01*
X005053Y003512D01*
X005032Y003476D01*
X005008Y003442D01*
X004981Y003411D01*
X004952Y003383D01*
X004919Y003357D01*
X004885Y003335D01*
X004848Y003316D01*
X004810Y003301D01*
X004770Y003289D01*
X004730Y003281D01*
X004689Y003277D01*
X004647Y003277D01*
X004606Y003281D01*
X004566Y003289D01*
X004526Y003301D01*
X004488Y003316D01*
X004452Y003335D01*
X004417Y003357D01*
X004384Y003383D01*
X004355Y003411D01*
X004328Y003442D01*
X004304Y003476D01*
X004283Y003512D01*
X004266Y003549D01*
X004253Y003588D01*
X004243Y003628D01*
X004237Y003669D01*
X004235Y003710D01*
X012109Y003710D02*
X012111Y003751D01*
X012117Y003792D01*
X012127Y003832D01*
X012140Y003871D01*
X012157Y003908D01*
X012178Y003944D01*
X012202Y003978D01*
X012229Y004009D01*
X012258Y004037D01*
X012291Y004063D01*
X012325Y004085D01*
X012362Y004104D01*
X012400Y004119D01*
X012440Y004131D01*
X012480Y004139D01*
X012521Y004143D01*
X012563Y004143D01*
X012604Y004139D01*
X012644Y004131D01*
X012684Y004119D01*
X012722Y004104D01*
X012758Y004085D01*
X012793Y004063D01*
X012826Y004037D01*
X012855Y004009D01*
X012882Y003978D01*
X012906Y003944D01*
X012927Y003908D01*
X012944Y003871D01*
X012957Y003832D01*
X012967Y003792D01*
X012973Y003751D01*
X012975Y003710D01*
X012973Y003669D01*
X012967Y003628D01*
X012957Y003588D01*
X012944Y003549D01*
X012927Y003512D01*
X012906Y003476D01*
X012882Y003442D01*
X012855Y003411D01*
X012826Y003383D01*
X012793Y003357D01*
X012759Y003335D01*
X012722Y003316D01*
X012684Y003301D01*
X012644Y003289D01*
X012604Y003281D01*
X012563Y003277D01*
X012521Y003277D01*
X012480Y003281D01*
X012440Y003289D01*
X012400Y003301D01*
X012362Y003316D01*
X012326Y003335D01*
X012291Y003357D01*
X012258Y003383D01*
X012229Y003411D01*
X012202Y003442D01*
X012178Y003476D01*
X012157Y003512D01*
X012140Y003549D01*
X012127Y003588D01*
X012117Y003628D01*
X012111Y003669D01*
X012109Y003710D01*
X013727Y014057D02*
X013727Y018457D01*
X012109Y019458D02*
X012111Y019499D01*
X012117Y019540D01*
X012127Y019580D01*
X012140Y019619D01*
X012157Y019656D01*
X012178Y019692D01*
X012202Y019726D01*
X012229Y019757D01*
X012258Y019785D01*
X012291Y019811D01*
X012325Y019833D01*
X012362Y019852D01*
X012400Y019867D01*
X012440Y019879D01*
X012480Y019887D01*
X012521Y019891D01*
X012563Y019891D01*
X012604Y019887D01*
X012644Y019879D01*
X012684Y019867D01*
X012722Y019852D01*
X012758Y019833D01*
X012793Y019811D01*
X012826Y019785D01*
X012855Y019757D01*
X012882Y019726D01*
X012906Y019692D01*
X012927Y019656D01*
X012944Y019619D01*
X012957Y019580D01*
X012967Y019540D01*
X012973Y019499D01*
X012975Y019458D01*
X012973Y019417D01*
X012967Y019376D01*
X012957Y019336D01*
X012944Y019297D01*
X012927Y019260D01*
X012906Y019224D01*
X012882Y019190D01*
X012855Y019159D01*
X012826Y019131D01*
X012793Y019105D01*
X012759Y019083D01*
X012722Y019064D01*
X012684Y019049D01*
X012644Y019037D01*
X012604Y019029D01*
X012563Y019025D01*
X012521Y019025D01*
X012480Y019029D01*
X012440Y019037D01*
X012400Y019049D01*
X012362Y019064D01*
X012326Y019083D01*
X012291Y019105D01*
X012258Y019131D01*
X012229Y019159D01*
X012202Y019190D01*
X012178Y019224D01*
X012157Y019260D01*
X012140Y019297D01*
X012127Y019336D01*
X012117Y019376D01*
X012111Y019417D01*
X012109Y019458D01*
X004235Y019458D02*
X004237Y019499D01*
X004243Y019540D01*
X004253Y019580D01*
X004266Y019619D01*
X004283Y019656D01*
X004304Y019692D01*
X004328Y019726D01*
X004355Y019757D01*
X004384Y019785D01*
X004417Y019811D01*
X004451Y019833D01*
X004488Y019852D01*
X004526Y019867D01*
X004566Y019879D01*
X004606Y019887D01*
X004647Y019891D01*
X004689Y019891D01*
X004730Y019887D01*
X004770Y019879D01*
X004810Y019867D01*
X004848Y019852D01*
X004884Y019833D01*
X004919Y019811D01*
X004952Y019785D01*
X004981Y019757D01*
X005008Y019726D01*
X005032Y019692D01*
X005053Y019656D01*
X005070Y019619D01*
X005083Y019580D01*
X005093Y019540D01*
X005099Y019499D01*
X005101Y019458D01*
X005099Y019417D01*
X005093Y019376D01*
X005083Y019336D01*
X005070Y019297D01*
X005053Y019260D01*
X005032Y019224D01*
X005008Y019190D01*
X004981Y019159D01*
X004952Y019131D01*
X004919Y019105D01*
X004885Y019083D01*
X004848Y019064D01*
X004810Y019049D01*
X004770Y019037D01*
X004730Y019029D01*
X004689Y019025D01*
X004647Y019025D01*
X004606Y019029D01*
X004566Y019037D01*
X004526Y019049D01*
X004488Y019064D01*
X004452Y019083D01*
X004417Y019105D01*
X004384Y019131D01*
X004355Y019159D01*
X004328Y019190D01*
X004304Y019224D01*
X004283Y019260D01*
X004266Y019297D01*
X004253Y019336D01*
X004243Y019376D01*
X004237Y019417D01*
X004235Y019458D01*
M02*
