G75*
G70*
%OFA0B0*%
%FSLAX24Y24*%
%IPPOS*%
%LPD*%
%AMOC8*
5,1,8,0,0,1.08239X$1,22.5*
%
%ADD10C,0.0946*%
%ADD11R,0.0867X0.0474*%
%ADD12R,0.0513X0.0474*%
%ADD13R,0.0474X0.0513*%
%ADD14R,0.0480X0.0480*%
%ADD15C,0.0480*%
%ADD16R,0.2080X0.0980*%
%ADD17OC8,0.0552*%
D10*
X004668Y003710D03*
X012542Y003710D03*
X012542Y019458D03*
X004668Y019458D03*
D11*
X004086Y018025D03*
X004086Y017435D03*
X004086Y016844D03*
X004086Y016254D03*
X004086Y015663D03*
X004086Y015072D03*
X004086Y014482D03*
X004086Y013891D03*
X004086Y013301D03*
X004086Y012710D03*
X010385Y012710D03*
X010385Y013301D03*
X010385Y013891D03*
X010385Y014482D03*
X010385Y015072D03*
X010385Y015663D03*
X010385Y016254D03*
X010385Y016844D03*
X010385Y017435D03*
X010385Y018025D03*
D12*
X007802Y006206D03*
X007802Y005537D03*
D13*
X006739Y005694D03*
X006070Y005694D03*
D14*
X006355Y003710D03*
X006355Y019458D03*
D15*
X006855Y019458D03*
X007355Y019458D03*
X007855Y019458D03*
X008355Y019458D03*
X008855Y019458D03*
X009355Y019458D03*
X009855Y019458D03*
X010355Y019458D03*
X010855Y019458D03*
X010855Y003710D03*
X010355Y003710D03*
X009855Y003710D03*
X009355Y003710D03*
X008855Y003710D03*
X008355Y003710D03*
X007855Y003710D03*
X007355Y003710D03*
X006855Y003710D03*
D16*
X012717Y014517D03*
X012717Y017997D03*
D17*
X003975Y010411D03*
X003975Y005687D03*
M02*
