G75*
G70*
%OFA0B0*%
%FSLAX24Y24*%
%IPPOS*%
%LPD*%
%AMOC8*
5,1,8,0,0,1.08239X$1,22.5*
%
%ADD10C,0.0050*%
D10*
X004086Y012218D02*
X010385Y012218D01*
X010385Y018517D01*
X004086Y018517D01*
X004086Y012218D01*
X006408Y015446D02*
X006410Y015491D01*
X006416Y015535D01*
X006425Y015579D01*
X006439Y015621D01*
X006456Y015662D01*
X006477Y015702D01*
X006501Y015740D01*
X006528Y015775D01*
X006558Y015808D01*
X006591Y015838D01*
X006626Y015865D01*
X006664Y015889D01*
X006704Y015910D01*
X006745Y015927D01*
X006787Y015941D01*
X006831Y015950D01*
X006875Y015956D01*
X006920Y015958D01*
X006965Y015956D01*
X007009Y015950D01*
X007053Y015941D01*
X007095Y015927D01*
X007136Y015910D01*
X007176Y015889D01*
X007214Y015865D01*
X007249Y015838D01*
X007282Y015808D01*
X007312Y015775D01*
X007339Y015740D01*
X007363Y015702D01*
X007384Y015662D01*
X007401Y015621D01*
X007415Y015579D01*
X007424Y015535D01*
X007430Y015491D01*
X007432Y015446D01*
X007430Y015401D01*
X007424Y015357D01*
X007415Y015313D01*
X007401Y015271D01*
X007384Y015230D01*
X007363Y015190D01*
X007339Y015152D01*
X007312Y015117D01*
X007282Y015084D01*
X007249Y015054D01*
X007214Y015027D01*
X007176Y015003D01*
X007136Y014982D01*
X007095Y014965D01*
X007053Y014951D01*
X007009Y014942D01*
X006965Y014936D01*
X006920Y014934D01*
X006875Y014936D01*
X006831Y014942D01*
X006787Y014951D01*
X006745Y014965D01*
X006704Y014982D01*
X006664Y015003D01*
X006626Y015027D01*
X006591Y015054D01*
X006558Y015084D01*
X006528Y015117D01*
X006501Y015152D01*
X006477Y015190D01*
X006456Y015230D01*
X006439Y015271D01*
X006425Y015313D01*
X006416Y015357D01*
X006410Y015401D01*
X006408Y015446D01*
M02*
