%
M48
M72
T01C0.0138
T02C0.0256
T03C0.0315
T04C0.0866
%
T01
X7818Y4773
X8054Y7332
X7031Y9261
X7503Y9891
X6676Y10009
X6086Y10009
X6086Y10679
X7818Y12372
X7700Y12844
X8054Y13553
X7818Y13868
X6952Y13238
X5948Y13883
X7031Y16309
X7031Y17883
X9786Y16230
X9786Y14734
X8594Y12675
X8999Y12372
X8290Y11348
X8330Y10836
X9786Y10718
X11479Y12175
X11605Y13159
X11027Y17557
T02
X10855Y19458
X10355Y19458
X9855Y19458
X9355Y19458
X8855Y19458
X8355Y19458
X7855Y19458
X7355Y19458
X6855Y19458
X6355Y19458
X6355Y3710
X6855Y3710
X7355Y3710
X7855Y3710
X8355Y3710
X8855Y3710
X9355Y3710
X9855Y3710
X10355Y3710
X10855Y3710
T03
X3975Y5687
X3975Y10411
T04
X4668Y3710
X12542Y3710
X12542Y19458
X4668Y19458
M30
