G75*
G70*
%OFA0B0*%
%FSLAX24Y24*%
%IPPOS*%
%LPD*%
%AMOC8*
5,1,8,0,0,1.08239X$1,22.5*
%
%ADD10C,0.0060*%
%ADD11C,0.0050*%
%ADD12C,0.0080*%
%ADD13C,0.0004*%
D10*
X005604Y004410D02*
X006031Y005050D01*
X006248Y004837D02*
X006462Y005050D01*
X006462Y004410D01*
X006675Y004410D02*
X006248Y004410D01*
X006031Y004410D02*
X005604Y005050D01*
X005805Y018001D02*
X005378Y018641D01*
X005805Y018641D02*
X005378Y018001D01*
X006022Y018001D02*
X006449Y018428D01*
X006449Y018535D01*
X006343Y018641D01*
X006129Y018641D01*
X006022Y018535D01*
X006022Y018001D02*
X006449Y018001D01*
D11*
X004369Y005293D02*
X004369Y004899D01*
X004212Y005096D02*
X004527Y005096D01*
X007976Y011781D02*
X007978Y011793D01*
X007983Y011804D01*
X007992Y011813D01*
X008003Y011818D01*
X008015Y011820D01*
X008027Y011818D01*
X008038Y011813D01*
X008047Y011804D01*
X008052Y011793D01*
X008054Y011781D01*
X008052Y011769D01*
X008047Y011758D01*
X008038Y011749D01*
X008027Y011744D01*
X008015Y011742D01*
X008003Y011744D01*
X007992Y011749D01*
X007983Y011758D01*
X007978Y011769D01*
X007976Y011781D01*
D12*
X013767Y014427D02*
X014338Y014427D01*
X014338Y015470D01*
X015184Y015470D01*
X015479Y015175D01*
X016975Y015175D01*
X016975Y015509D01*
X017438Y015509D01*
X017438Y017006D01*
X016975Y017006D01*
X016975Y017340D01*
X015479Y017340D01*
X015184Y017045D01*
X014338Y017045D01*
X014338Y018088D01*
X013767Y018088D01*
X013767Y017773D02*
X013767Y014742D01*
D13*
X005475Y013494D02*
X005475Y013002D01*
X005200Y012883D01*
X004924Y013002D01*
X004924Y013198D01*
X004826Y013297D01*
X004275Y013297D01*
X004176Y013198D01*
X004176Y012096D01*
X004275Y011998D01*
X004806Y011998D01*
X004924Y012116D01*
X004924Y012372D01*
X005200Y012254D01*
X005475Y012254D01*
X005475Y012256D02*
X005206Y012256D01*
X005200Y012254D02*
X005475Y012372D01*
X005475Y011820D01*
X003626Y011820D01*
X003625Y011820D02*
X004038Y011407D01*
X005062Y011407D01*
X005475Y011820D01*
X005475Y011822D02*
X003625Y011822D01*
X003625Y011820D02*
X003625Y013494D01*
X005475Y013494D01*
X005062Y013907D01*
X004038Y013907D01*
X003625Y013494D01*
X003625Y013491D02*
X005475Y013491D01*
X005475Y013489D02*
X003625Y013489D01*
X003625Y013486D02*
X005475Y013486D01*
X005475Y013484D02*
X003625Y013484D01*
X003625Y013482D02*
X005475Y013482D01*
X005475Y013479D02*
X003625Y013479D01*
X003625Y013477D02*
X005475Y013477D01*
X005475Y013474D02*
X003625Y013474D01*
X003625Y013472D02*
X005475Y013472D01*
X005475Y013469D02*
X003625Y013469D01*
X003625Y013467D02*
X005475Y013467D01*
X005475Y013464D02*
X003625Y013464D01*
X003625Y013462D02*
X005475Y013462D01*
X005475Y013459D02*
X003625Y013459D01*
X003625Y013457D02*
X005475Y013457D01*
X005475Y013454D02*
X003625Y013454D01*
X003625Y013452D02*
X005475Y013452D01*
X005475Y013449D02*
X003625Y013449D01*
X003625Y013447D02*
X005475Y013447D01*
X005475Y013444D02*
X003625Y013444D01*
X003625Y013442D02*
X005475Y013442D01*
X005475Y013439D02*
X003625Y013439D01*
X003625Y013437D02*
X005475Y013437D01*
X005475Y013434D02*
X003625Y013434D01*
X003625Y013432D02*
X005475Y013432D01*
X005475Y013429D02*
X003625Y013429D01*
X003625Y013427D02*
X005475Y013427D01*
X005475Y013424D02*
X003625Y013424D01*
X003625Y013422D02*
X005475Y013422D01*
X005475Y013420D02*
X003625Y013420D01*
X003625Y013417D02*
X005475Y013417D01*
X005475Y013415D02*
X003625Y013415D01*
X003625Y013412D02*
X005475Y013412D01*
X005475Y013410D02*
X003625Y013410D01*
X003625Y013407D02*
X005475Y013407D01*
X005475Y013405D02*
X003625Y013405D01*
X003625Y013402D02*
X005475Y013402D01*
X005475Y013400D02*
X003625Y013400D01*
X003625Y013397D02*
X005475Y013397D01*
X005475Y013395D02*
X003625Y013395D01*
X003625Y013392D02*
X005475Y013392D01*
X005475Y013390D02*
X003625Y013390D01*
X003625Y013387D02*
X005475Y013387D01*
X005475Y013385D02*
X003625Y013385D01*
X003625Y013382D02*
X005475Y013382D01*
X005475Y013380D02*
X003625Y013380D01*
X003625Y013377D02*
X005475Y013377D01*
X005475Y013375D02*
X003625Y013375D01*
X003625Y013372D02*
X005475Y013372D01*
X005475Y013370D02*
X003625Y013370D01*
X003625Y013367D02*
X005475Y013367D01*
X005475Y013365D02*
X003625Y013365D01*
X003625Y013362D02*
X005475Y013362D01*
X005475Y013360D02*
X003625Y013360D01*
X003625Y013358D02*
X005475Y013358D01*
X005475Y013355D02*
X003625Y013355D01*
X003625Y013353D02*
X005475Y013353D01*
X005475Y013350D02*
X003625Y013350D01*
X003625Y013348D02*
X005475Y013348D01*
X005475Y013345D02*
X003625Y013345D01*
X003625Y013343D02*
X005475Y013343D01*
X005475Y013340D02*
X003625Y013340D01*
X003625Y013338D02*
X005475Y013338D01*
X005475Y013335D02*
X003625Y013335D01*
X003625Y013333D02*
X005475Y013333D01*
X005475Y013330D02*
X003625Y013330D01*
X003625Y013328D02*
X005475Y013328D01*
X005475Y013325D02*
X003625Y013325D01*
X003625Y013323D02*
X005475Y013323D01*
X005475Y013320D02*
X003625Y013320D01*
X003625Y013318D02*
X005475Y013318D01*
X005475Y013315D02*
X003625Y013315D01*
X003625Y013313D02*
X005475Y013313D01*
X005475Y013310D02*
X003625Y013310D01*
X003625Y013308D02*
X005475Y013308D01*
X005475Y013305D02*
X003625Y013305D01*
X003625Y013303D02*
X005475Y013303D01*
X005475Y013300D02*
X003625Y013300D01*
X003625Y013298D02*
X005475Y013298D01*
X005475Y013296D02*
X004827Y013296D01*
X004830Y013293D02*
X005475Y013293D01*
X005475Y013291D02*
X004832Y013291D01*
X004835Y013288D02*
X005475Y013288D01*
X005475Y013286D02*
X004837Y013286D01*
X004840Y013283D02*
X005475Y013283D01*
X005475Y013281D02*
X004842Y013281D01*
X004845Y013278D02*
X005475Y013278D01*
X005475Y013276D02*
X004847Y013276D01*
X004849Y013273D02*
X005475Y013273D01*
X005475Y013271D02*
X004852Y013271D01*
X004854Y013268D02*
X005475Y013268D01*
X005475Y013266D02*
X004857Y013266D01*
X004859Y013263D02*
X005475Y013263D01*
X005475Y013261D02*
X004862Y013261D01*
X004864Y013258D02*
X005475Y013258D01*
X005475Y013256D02*
X004867Y013256D01*
X004869Y013253D02*
X005475Y013253D01*
X005475Y013251D02*
X004872Y013251D01*
X004874Y013248D02*
X005475Y013248D01*
X005475Y013246D02*
X004877Y013246D01*
X004879Y013243D02*
X005475Y013243D01*
X005475Y013241D02*
X004882Y013241D01*
X004884Y013238D02*
X005475Y013238D01*
X005475Y013236D02*
X004887Y013236D01*
X004889Y013234D02*
X005475Y013234D01*
X005475Y013231D02*
X004892Y013231D01*
X004894Y013229D02*
X005475Y013229D01*
X005475Y013226D02*
X004897Y013226D01*
X004899Y013224D02*
X005475Y013224D01*
X005475Y013221D02*
X004902Y013221D01*
X004904Y013219D02*
X005475Y013219D01*
X005475Y013216D02*
X004907Y013216D01*
X004909Y013214D02*
X005475Y013214D01*
X005475Y013211D02*
X004911Y013211D01*
X004914Y013209D02*
X005475Y013209D01*
X005475Y013206D02*
X004916Y013206D01*
X004919Y013204D02*
X005475Y013204D01*
X005475Y013201D02*
X004921Y013201D01*
X004924Y013199D02*
X005475Y013199D01*
X005475Y013196D02*
X004924Y013196D01*
X004924Y013194D02*
X005475Y013194D01*
X005475Y013191D02*
X004924Y013191D01*
X004924Y013189D02*
X005475Y013189D01*
X005475Y013186D02*
X004924Y013186D01*
X004924Y013184D02*
X005475Y013184D01*
X005475Y013181D02*
X004924Y013181D01*
X004924Y013179D02*
X005475Y013179D01*
X005475Y013176D02*
X004924Y013176D01*
X004924Y013174D02*
X005475Y013174D01*
X005475Y013171D02*
X004924Y013171D01*
X004924Y013169D02*
X005475Y013169D01*
X005475Y013167D02*
X004924Y013167D01*
X004924Y013164D02*
X005475Y013164D01*
X005475Y013162D02*
X004924Y013162D01*
X004924Y013159D02*
X005475Y013159D01*
X005475Y013157D02*
X004924Y013157D01*
X004924Y013154D02*
X005475Y013154D01*
X005475Y013152D02*
X004924Y013152D01*
X004924Y013149D02*
X005475Y013149D01*
X005475Y013147D02*
X004924Y013147D01*
X004924Y013144D02*
X005475Y013144D01*
X005475Y013142D02*
X004924Y013142D01*
X004924Y013139D02*
X005475Y013139D01*
X005475Y013137D02*
X004924Y013137D01*
X004924Y013134D02*
X005475Y013134D01*
X005475Y013132D02*
X004924Y013132D01*
X004924Y013129D02*
X005475Y013129D01*
X005475Y013127D02*
X004924Y013127D01*
X004924Y013124D02*
X005475Y013124D01*
X005475Y013122D02*
X004924Y013122D01*
X004924Y013119D02*
X005475Y013119D01*
X005475Y013117D02*
X004924Y013117D01*
X004924Y013114D02*
X005475Y013114D01*
X005475Y013112D02*
X004924Y013112D01*
X004924Y013109D02*
X005475Y013109D01*
X005475Y013107D02*
X004924Y013107D01*
X004924Y013105D02*
X005475Y013105D01*
X005475Y013102D02*
X004924Y013102D01*
X004924Y013100D02*
X005475Y013100D01*
X005475Y013097D02*
X004924Y013097D01*
X004924Y013095D02*
X005475Y013095D01*
X005475Y013092D02*
X004924Y013092D01*
X004924Y013090D02*
X005475Y013090D01*
X005475Y013087D02*
X004924Y013087D01*
X004924Y013085D02*
X005475Y013085D01*
X005475Y013082D02*
X004924Y013082D01*
X004924Y013080D02*
X005475Y013080D01*
X005475Y013077D02*
X004924Y013077D01*
X004924Y013075D02*
X005475Y013075D01*
X005475Y013072D02*
X004924Y013072D01*
X004924Y013070D02*
X005475Y013070D01*
X005475Y013067D02*
X004924Y013067D01*
X004924Y013065D02*
X005475Y013065D01*
X005475Y013062D02*
X004924Y013062D01*
X004924Y013060D02*
X005475Y013060D01*
X005475Y013057D02*
X004924Y013057D01*
X004924Y013055D02*
X005475Y013055D01*
X005475Y013052D02*
X004924Y013052D01*
X004924Y013050D02*
X005475Y013050D01*
X005475Y013047D02*
X004924Y013047D01*
X004924Y013045D02*
X005475Y013045D01*
X005475Y013043D02*
X004924Y013043D01*
X004924Y013040D02*
X005475Y013040D01*
X005475Y013038D02*
X004924Y013038D01*
X004924Y013035D02*
X005475Y013035D01*
X005475Y013033D02*
X004924Y013033D01*
X004924Y013030D02*
X005475Y013030D01*
X005475Y013028D02*
X004924Y013028D01*
X004924Y013025D02*
X005475Y013025D01*
X005475Y013023D02*
X004924Y013023D01*
X004924Y013020D02*
X005475Y013020D01*
X005475Y013018D02*
X004924Y013018D01*
X004924Y013015D02*
X005475Y013015D01*
X005475Y013013D02*
X004924Y013013D01*
X004924Y013010D02*
X005475Y013010D01*
X005475Y013008D02*
X004924Y013008D01*
X004924Y013005D02*
X005475Y013005D01*
X005475Y013003D02*
X004924Y013003D01*
X004927Y013000D02*
X005473Y013000D01*
X005467Y012998D02*
X004933Y012998D01*
X004939Y012995D02*
X005461Y012995D01*
X005455Y012993D02*
X004944Y012993D01*
X004950Y012990D02*
X005449Y012990D01*
X005444Y012988D02*
X004956Y012988D01*
X004962Y012985D02*
X005438Y012985D01*
X005432Y012983D02*
X004968Y012983D01*
X004973Y012981D02*
X005426Y012981D01*
X005420Y012978D02*
X004979Y012978D01*
X004985Y012976D02*
X005415Y012976D01*
X005409Y012973D02*
X004991Y012973D01*
X004997Y012971D02*
X005403Y012971D01*
X005397Y012968D02*
X005002Y012968D01*
X005008Y012966D02*
X005392Y012966D01*
X005386Y012963D02*
X005014Y012963D01*
X005020Y012961D02*
X005380Y012961D01*
X005374Y012958D02*
X005025Y012958D01*
X005031Y012956D02*
X005368Y012956D01*
X005363Y012953D02*
X005037Y012953D01*
X005043Y012951D02*
X005357Y012951D01*
X005351Y012948D02*
X005049Y012948D01*
X005054Y012946D02*
X005345Y012946D01*
X005339Y012943D02*
X005060Y012943D01*
X005066Y012941D02*
X005334Y012941D01*
X005328Y012938D02*
X005072Y012938D01*
X005078Y012936D02*
X005322Y012936D01*
X005316Y012933D02*
X005083Y012933D01*
X005089Y012931D02*
X005311Y012931D01*
X005305Y012928D02*
X005095Y012928D01*
X005101Y012926D02*
X005299Y012926D01*
X005293Y012923D02*
X005106Y012923D01*
X005112Y012921D02*
X005287Y012921D01*
X005282Y012919D02*
X005118Y012919D01*
X005124Y012916D02*
X005276Y012916D01*
X005270Y012914D02*
X005130Y012914D01*
X005135Y012911D02*
X005264Y012911D01*
X005258Y012909D02*
X005141Y012909D01*
X005147Y012906D02*
X005253Y012906D01*
X005247Y012904D02*
X005153Y012904D01*
X005159Y012901D02*
X005241Y012901D01*
X005235Y012899D02*
X005164Y012899D01*
X005170Y012896D02*
X005229Y012896D01*
X005224Y012894D02*
X005176Y012894D01*
X005182Y012891D02*
X005218Y012891D01*
X005212Y012889D02*
X005188Y012889D01*
X005193Y012886D02*
X005206Y012886D01*
X005201Y012884D02*
X005199Y012884D01*
X004968Y012353D02*
X004924Y012353D01*
X004924Y012355D02*
X004962Y012355D01*
X004956Y012358D02*
X004924Y012358D01*
X004924Y012360D02*
X004950Y012360D01*
X004945Y012363D02*
X004924Y012363D01*
X004924Y012365D02*
X004939Y012365D01*
X004933Y012368D02*
X004924Y012368D01*
X004924Y012370D02*
X004927Y012370D01*
X004924Y012351D02*
X004974Y012351D01*
X004979Y012348D02*
X004924Y012348D01*
X004924Y012346D02*
X004985Y012346D01*
X004991Y012343D02*
X004924Y012343D01*
X004924Y012341D02*
X004997Y012341D01*
X005003Y012338D02*
X004924Y012338D01*
X004924Y012336D02*
X005008Y012336D01*
X005014Y012333D02*
X004924Y012333D01*
X004924Y012331D02*
X005020Y012331D01*
X005026Y012328D02*
X004924Y012328D01*
X004924Y012326D02*
X005031Y012326D01*
X005037Y012323D02*
X004924Y012323D01*
X004924Y012321D02*
X005043Y012321D01*
X005049Y012318D02*
X004924Y012318D01*
X004924Y012316D02*
X005055Y012316D01*
X005060Y012313D02*
X004924Y012313D01*
X004924Y012311D02*
X005066Y012311D01*
X005072Y012308D02*
X004924Y012308D01*
X004924Y012306D02*
X005078Y012306D01*
X005084Y012303D02*
X004924Y012303D01*
X004924Y012301D02*
X005089Y012301D01*
X005095Y012298D02*
X004924Y012298D01*
X004924Y012296D02*
X005101Y012296D01*
X005107Y012293D02*
X004924Y012293D01*
X004924Y012291D02*
X005112Y012291D01*
X005118Y012289D02*
X004924Y012289D01*
X004924Y012286D02*
X005124Y012286D01*
X005130Y012284D02*
X004924Y012284D01*
X004924Y012281D02*
X005136Y012281D01*
X005141Y012279D02*
X004924Y012279D01*
X004924Y012276D02*
X005147Y012276D01*
X005153Y012274D02*
X004924Y012274D01*
X004924Y012271D02*
X005159Y012271D01*
X005165Y012269D02*
X004924Y012269D01*
X004924Y012266D02*
X005170Y012266D01*
X005176Y012264D02*
X004924Y012264D01*
X004924Y012261D02*
X005182Y012261D01*
X005188Y012259D02*
X004924Y012259D01*
X004924Y012256D02*
X005194Y012256D01*
X005199Y012254D02*
X004924Y012254D01*
X004924Y012251D02*
X005475Y012251D01*
X005475Y012249D02*
X004924Y012249D01*
X004924Y012246D02*
X005475Y012246D01*
X005475Y012244D02*
X004924Y012244D01*
X004924Y012241D02*
X005475Y012241D01*
X005475Y012239D02*
X004924Y012239D01*
X004924Y012236D02*
X005475Y012236D01*
X005475Y012234D02*
X004924Y012234D01*
X004924Y012231D02*
X005475Y012231D01*
X005475Y012229D02*
X004924Y012229D01*
X004924Y012226D02*
X005475Y012226D01*
X005475Y012224D02*
X004924Y012224D01*
X004924Y012222D02*
X005475Y012222D01*
X005475Y012219D02*
X004924Y012219D01*
X004924Y012217D02*
X005475Y012217D01*
X005475Y012214D02*
X004924Y012214D01*
X004924Y012212D02*
X005475Y012212D01*
X005475Y012209D02*
X004924Y012209D01*
X004924Y012207D02*
X005475Y012207D01*
X005475Y012204D02*
X004924Y012204D01*
X004924Y012202D02*
X005475Y012202D01*
X005475Y012199D02*
X004924Y012199D01*
X004924Y012197D02*
X005475Y012197D01*
X005475Y012194D02*
X004924Y012194D01*
X004924Y012192D02*
X005475Y012192D01*
X005475Y012189D02*
X004924Y012189D01*
X004924Y012187D02*
X005475Y012187D01*
X005475Y012184D02*
X004924Y012184D01*
X004924Y012182D02*
X005475Y012182D01*
X005475Y012179D02*
X004924Y012179D01*
X004924Y012177D02*
X005475Y012177D01*
X005475Y012174D02*
X004924Y012174D01*
X004924Y012172D02*
X005475Y012172D01*
X005475Y012169D02*
X004924Y012169D01*
X004924Y012167D02*
X005475Y012167D01*
X005475Y012164D02*
X004924Y012164D01*
X004924Y012162D02*
X005475Y012162D01*
X005475Y012160D02*
X004924Y012160D01*
X004924Y012157D02*
X005475Y012157D01*
X005475Y012155D02*
X004924Y012155D01*
X004924Y012152D02*
X005475Y012152D01*
X005475Y012150D02*
X004924Y012150D01*
X004924Y012147D02*
X005475Y012147D01*
X005475Y012145D02*
X004924Y012145D01*
X004924Y012142D02*
X005475Y012142D01*
X005475Y012140D02*
X004924Y012140D01*
X004924Y012137D02*
X005475Y012137D01*
X005475Y012135D02*
X004924Y012135D01*
X004924Y012132D02*
X005475Y012132D01*
X005475Y012130D02*
X004924Y012130D01*
X004924Y012127D02*
X005475Y012127D01*
X005475Y012125D02*
X004924Y012125D01*
X004924Y012122D02*
X005475Y012122D01*
X005475Y012120D02*
X004924Y012120D01*
X004924Y012117D02*
X005475Y012117D01*
X005475Y012115D02*
X004923Y012115D01*
X004921Y012112D02*
X005475Y012112D01*
X005475Y012110D02*
X004918Y012110D01*
X004916Y012107D02*
X005475Y012107D01*
X005475Y012105D02*
X004913Y012105D01*
X004911Y012102D02*
X005475Y012102D01*
X005475Y012100D02*
X004909Y012100D01*
X004906Y012098D02*
X005475Y012098D01*
X005475Y012095D02*
X004904Y012095D01*
X004901Y012093D02*
X005475Y012093D01*
X005475Y012090D02*
X004899Y012090D01*
X004896Y012088D02*
X005475Y012088D01*
X005475Y012085D02*
X004894Y012085D01*
X004891Y012083D02*
X005475Y012083D01*
X005475Y012080D02*
X004889Y012080D01*
X004886Y012078D02*
X005475Y012078D01*
X005475Y012075D02*
X004884Y012075D01*
X004881Y012073D02*
X005475Y012073D01*
X005475Y012070D02*
X004879Y012070D01*
X004876Y012068D02*
X005475Y012068D01*
X005475Y012065D02*
X004874Y012065D01*
X004871Y012063D02*
X005475Y012063D01*
X005475Y012060D02*
X004869Y012060D01*
X004866Y012058D02*
X005475Y012058D01*
X005475Y012055D02*
X004864Y012055D01*
X004861Y012053D02*
X005475Y012053D01*
X005475Y012050D02*
X004859Y012050D01*
X004856Y012048D02*
X005475Y012048D01*
X005475Y012045D02*
X004854Y012045D01*
X004851Y012043D02*
X005475Y012043D01*
X005475Y012040D02*
X004849Y012040D01*
X004846Y012038D02*
X005475Y012038D01*
X005475Y012036D02*
X004844Y012036D01*
X004842Y012033D02*
X005475Y012033D01*
X005475Y012031D02*
X004839Y012031D01*
X004837Y012028D02*
X005475Y012028D01*
X005475Y012026D02*
X004834Y012026D01*
X004832Y012023D02*
X005475Y012023D01*
X005475Y012021D02*
X004829Y012021D01*
X004827Y012018D02*
X005475Y012018D01*
X005475Y012016D02*
X004824Y012016D01*
X004822Y012013D02*
X005475Y012013D01*
X005475Y012011D02*
X004819Y012011D01*
X004817Y012008D02*
X005475Y012008D01*
X005475Y012006D02*
X004814Y012006D01*
X004812Y012003D02*
X005475Y012003D01*
X005475Y012001D02*
X004809Y012001D01*
X004807Y011998D02*
X005475Y011998D01*
X005475Y011996D02*
X003625Y011996D01*
X003625Y011998D02*
X004274Y011998D01*
X004271Y012001D02*
X003625Y012001D01*
X003625Y012003D02*
X004269Y012003D01*
X004267Y012006D02*
X003625Y012006D01*
X003625Y012008D02*
X004264Y012008D01*
X004262Y012011D02*
X003625Y012011D01*
X003625Y012013D02*
X004259Y012013D01*
X004257Y012016D02*
X003625Y012016D01*
X003625Y012018D02*
X004254Y012018D01*
X004252Y012021D02*
X003625Y012021D01*
X003625Y012023D02*
X004249Y012023D01*
X004247Y012026D02*
X003625Y012026D01*
X003625Y012028D02*
X004244Y012028D01*
X004242Y012031D02*
X003625Y012031D01*
X003625Y012033D02*
X004239Y012033D01*
X004237Y012036D02*
X003625Y012036D01*
X003625Y012038D02*
X004234Y012038D01*
X004232Y012040D02*
X003625Y012040D01*
X003625Y012043D02*
X004229Y012043D01*
X004227Y012045D02*
X003625Y012045D01*
X003625Y012048D02*
X004224Y012048D01*
X004222Y012050D02*
X003625Y012050D01*
X003625Y012053D02*
X004219Y012053D01*
X004217Y012055D02*
X003625Y012055D01*
X003625Y012058D02*
X004214Y012058D01*
X004212Y012060D02*
X003625Y012060D01*
X003625Y012063D02*
X004209Y012063D01*
X004207Y012065D02*
X003625Y012065D01*
X003625Y012068D02*
X004205Y012068D01*
X004202Y012070D02*
X003625Y012070D01*
X003625Y012073D02*
X004200Y012073D01*
X004197Y012075D02*
X003625Y012075D01*
X003625Y012078D02*
X004195Y012078D01*
X004192Y012080D02*
X003625Y012080D01*
X003625Y012083D02*
X004190Y012083D01*
X004187Y012085D02*
X003625Y012085D01*
X003625Y012088D02*
X004185Y012088D01*
X004182Y012090D02*
X003625Y012090D01*
X003625Y012093D02*
X004180Y012093D01*
X004177Y012095D02*
X003625Y012095D01*
X003625Y012098D02*
X004176Y012098D01*
X004176Y012100D02*
X003625Y012100D01*
X003625Y012102D02*
X004176Y012102D01*
X004176Y012105D02*
X003625Y012105D01*
X003625Y012107D02*
X004176Y012107D01*
X004176Y012110D02*
X003625Y012110D01*
X003625Y012112D02*
X004176Y012112D01*
X004176Y012115D02*
X003625Y012115D01*
X003625Y012117D02*
X004176Y012117D01*
X004176Y012120D02*
X003625Y012120D01*
X003625Y012122D02*
X004176Y012122D01*
X004176Y012125D02*
X003625Y012125D01*
X003625Y012127D02*
X004176Y012127D01*
X004176Y012130D02*
X003625Y012130D01*
X003625Y012132D02*
X004176Y012132D01*
X004176Y012135D02*
X003625Y012135D01*
X003625Y012137D02*
X004176Y012137D01*
X004176Y012140D02*
X003625Y012140D01*
X003625Y012142D02*
X004176Y012142D01*
X004176Y012145D02*
X003625Y012145D01*
X003625Y012147D02*
X004176Y012147D01*
X004176Y012150D02*
X003625Y012150D01*
X003625Y012152D02*
X004176Y012152D01*
X004176Y012155D02*
X003625Y012155D01*
X003625Y012157D02*
X004176Y012157D01*
X004176Y012160D02*
X003625Y012160D01*
X003625Y012162D02*
X004176Y012162D01*
X004176Y012164D02*
X003625Y012164D01*
X003625Y012167D02*
X004176Y012167D01*
X004176Y012169D02*
X003625Y012169D01*
X003625Y012172D02*
X004176Y012172D01*
X004176Y012174D02*
X003625Y012174D01*
X003625Y012177D02*
X004176Y012177D01*
X004176Y012179D02*
X003625Y012179D01*
X003625Y012182D02*
X004176Y012182D01*
X004176Y012184D02*
X003625Y012184D01*
X003625Y012187D02*
X004176Y012187D01*
X004176Y012189D02*
X003625Y012189D01*
X003625Y012192D02*
X004176Y012192D01*
X004176Y012194D02*
X003625Y012194D01*
X003625Y012197D02*
X004176Y012197D01*
X004176Y012199D02*
X003625Y012199D01*
X003625Y012202D02*
X004176Y012202D01*
X004176Y012204D02*
X003625Y012204D01*
X003625Y012207D02*
X004176Y012207D01*
X004176Y012209D02*
X003625Y012209D01*
X003625Y012212D02*
X004176Y012212D01*
X004176Y012214D02*
X003625Y012214D01*
X003625Y012217D02*
X004176Y012217D01*
X004176Y012219D02*
X003625Y012219D01*
X003625Y012222D02*
X004176Y012222D01*
X004176Y012224D02*
X003625Y012224D01*
X003625Y012226D02*
X004176Y012226D01*
X004176Y012229D02*
X003625Y012229D01*
X003625Y012231D02*
X004176Y012231D01*
X004176Y012234D02*
X003625Y012234D01*
X003625Y012236D02*
X004176Y012236D01*
X004176Y012239D02*
X003625Y012239D01*
X003625Y012241D02*
X004176Y012241D01*
X004176Y012244D02*
X003625Y012244D01*
X003625Y012246D02*
X004176Y012246D01*
X004176Y012249D02*
X003625Y012249D01*
X003625Y012251D02*
X004176Y012251D01*
X004176Y012254D02*
X003625Y012254D01*
X003625Y012256D02*
X004176Y012256D01*
X004176Y012259D02*
X003625Y012259D01*
X003625Y012261D02*
X004176Y012261D01*
X004176Y012264D02*
X003625Y012264D01*
X003625Y012266D02*
X004176Y012266D01*
X004176Y012269D02*
X003625Y012269D01*
X003625Y012271D02*
X004176Y012271D01*
X004176Y012274D02*
X003625Y012274D01*
X003625Y012276D02*
X004176Y012276D01*
X004176Y012279D02*
X003625Y012279D01*
X003625Y012281D02*
X004176Y012281D01*
X004176Y012284D02*
X003625Y012284D01*
X003625Y012286D02*
X004176Y012286D01*
X004176Y012289D02*
X003625Y012289D01*
X003625Y012291D02*
X004176Y012291D01*
X004176Y012293D02*
X003625Y012293D01*
X003625Y012296D02*
X004176Y012296D01*
X004176Y012298D02*
X003625Y012298D01*
X003625Y012301D02*
X004176Y012301D01*
X004176Y012303D02*
X003625Y012303D01*
X003625Y012306D02*
X004176Y012306D01*
X004176Y012308D02*
X003625Y012308D01*
X003625Y012311D02*
X004176Y012311D01*
X004176Y012313D02*
X003625Y012313D01*
X003625Y012316D02*
X004176Y012316D01*
X004176Y012318D02*
X003625Y012318D01*
X003625Y012321D02*
X004176Y012321D01*
X004176Y012323D02*
X003625Y012323D01*
X003625Y012326D02*
X004176Y012326D01*
X004176Y012328D02*
X003625Y012328D01*
X003625Y012331D02*
X004176Y012331D01*
X004176Y012333D02*
X003625Y012333D01*
X003625Y012336D02*
X004176Y012336D01*
X004176Y012338D02*
X003625Y012338D01*
X003625Y012341D02*
X004176Y012341D01*
X004176Y012343D02*
X003625Y012343D01*
X003625Y012346D02*
X004176Y012346D01*
X004176Y012348D02*
X003625Y012348D01*
X003625Y012351D02*
X004176Y012351D01*
X004176Y012353D02*
X003625Y012353D01*
X003625Y012355D02*
X004176Y012355D01*
X004176Y012358D02*
X003625Y012358D01*
X003625Y012360D02*
X004176Y012360D01*
X004176Y012363D02*
X003625Y012363D01*
X003625Y012365D02*
X004176Y012365D01*
X004176Y012368D02*
X003625Y012368D01*
X003625Y012370D02*
X004176Y012370D01*
X004176Y012373D02*
X003625Y012373D01*
X003625Y012375D02*
X004176Y012375D01*
X004176Y012378D02*
X003625Y012378D01*
X003625Y012380D02*
X004176Y012380D01*
X004176Y012383D02*
X003625Y012383D01*
X003625Y012385D02*
X004176Y012385D01*
X004176Y012388D02*
X003625Y012388D01*
X003625Y012390D02*
X004176Y012390D01*
X004176Y012393D02*
X003625Y012393D01*
X003625Y012395D02*
X004176Y012395D01*
X004176Y012398D02*
X003625Y012398D01*
X003625Y012400D02*
X004176Y012400D01*
X004176Y012403D02*
X003625Y012403D01*
X003625Y012405D02*
X004176Y012405D01*
X004176Y012408D02*
X003625Y012408D01*
X003625Y012410D02*
X004176Y012410D01*
X004176Y012413D02*
X003625Y012413D01*
X003625Y012415D02*
X004176Y012415D01*
X004176Y012417D02*
X003625Y012417D01*
X003625Y012420D02*
X004176Y012420D01*
X004176Y012422D02*
X003625Y012422D01*
X003625Y012425D02*
X004176Y012425D01*
X004176Y012427D02*
X003625Y012427D01*
X003625Y012430D02*
X004176Y012430D01*
X004176Y012432D02*
X003625Y012432D01*
X003625Y012435D02*
X004176Y012435D01*
X004176Y012437D02*
X003625Y012437D01*
X003625Y012440D02*
X004176Y012440D01*
X004176Y012442D02*
X003625Y012442D01*
X003625Y012445D02*
X004176Y012445D01*
X004176Y012447D02*
X003625Y012447D01*
X003625Y012450D02*
X004176Y012450D01*
X004176Y012452D02*
X003625Y012452D01*
X003625Y012455D02*
X004176Y012455D01*
X004176Y012457D02*
X003625Y012457D01*
X003625Y012460D02*
X004176Y012460D01*
X004176Y012462D02*
X003625Y012462D01*
X003625Y012465D02*
X004176Y012465D01*
X004176Y012467D02*
X003625Y012467D01*
X003625Y012470D02*
X004176Y012470D01*
X004176Y012472D02*
X003625Y012472D01*
X003625Y012475D02*
X004176Y012475D01*
X004176Y012477D02*
X003625Y012477D01*
X003625Y012479D02*
X004176Y012479D01*
X004176Y012482D02*
X003625Y012482D01*
X003625Y012484D02*
X004176Y012484D01*
X004176Y012487D02*
X003625Y012487D01*
X003625Y012489D02*
X004176Y012489D01*
X004176Y012492D02*
X003625Y012492D01*
X003625Y012494D02*
X004176Y012494D01*
X004176Y012497D02*
X003625Y012497D01*
X003625Y012499D02*
X004176Y012499D01*
X004176Y012502D02*
X003625Y012502D01*
X003625Y012504D02*
X004176Y012504D01*
X004176Y012507D02*
X003625Y012507D01*
X003625Y012509D02*
X004176Y012509D01*
X004176Y012512D02*
X003625Y012512D01*
X003625Y012514D02*
X004176Y012514D01*
X004176Y012517D02*
X003625Y012517D01*
X003625Y012519D02*
X004176Y012519D01*
X004176Y012522D02*
X003625Y012522D01*
X003625Y012524D02*
X004176Y012524D01*
X004176Y012527D02*
X003625Y012527D01*
X003625Y012529D02*
X004176Y012529D01*
X004176Y012532D02*
X003625Y012532D01*
X003625Y012534D02*
X004176Y012534D01*
X004176Y012537D02*
X003625Y012537D01*
X003625Y012539D02*
X004176Y012539D01*
X004176Y012541D02*
X003625Y012541D01*
X003625Y012544D02*
X004176Y012544D01*
X004176Y012546D02*
X003625Y012546D01*
X003625Y012549D02*
X004176Y012549D01*
X004176Y012551D02*
X003625Y012551D01*
X003625Y012554D02*
X004176Y012554D01*
X004176Y012556D02*
X003625Y012556D01*
X003625Y012559D02*
X004176Y012559D01*
X004176Y012561D02*
X003625Y012561D01*
X003625Y012564D02*
X004176Y012564D01*
X004176Y012566D02*
X003625Y012566D01*
X003625Y012569D02*
X004176Y012569D01*
X004176Y012571D02*
X003625Y012571D01*
X003625Y012574D02*
X004176Y012574D01*
X004176Y012576D02*
X003625Y012576D01*
X003625Y012579D02*
X004176Y012579D01*
X004176Y012581D02*
X003625Y012581D01*
X003625Y012584D02*
X004176Y012584D01*
X004176Y012586D02*
X003625Y012586D01*
X003625Y012589D02*
X004176Y012589D01*
X004176Y012591D02*
X003625Y012591D01*
X003625Y012594D02*
X004176Y012594D01*
X004176Y012596D02*
X003625Y012596D01*
X003625Y012599D02*
X004176Y012599D01*
X004176Y012601D02*
X003625Y012601D01*
X003625Y012604D02*
X004176Y012604D01*
X004176Y012606D02*
X003625Y012606D01*
X003625Y012608D02*
X004176Y012608D01*
X004176Y012611D02*
X003625Y012611D01*
X003625Y012613D02*
X004176Y012613D01*
X004176Y012616D02*
X003625Y012616D01*
X003625Y012618D02*
X004176Y012618D01*
X004176Y012621D02*
X003625Y012621D01*
X003625Y012623D02*
X004176Y012623D01*
X004176Y012626D02*
X003625Y012626D01*
X003625Y012628D02*
X004176Y012628D01*
X004176Y012631D02*
X003625Y012631D01*
X003625Y012633D02*
X004176Y012633D01*
X004176Y012636D02*
X003625Y012636D01*
X003625Y012638D02*
X004176Y012638D01*
X004176Y012641D02*
X003625Y012641D01*
X003625Y012643D02*
X004176Y012643D01*
X004176Y012646D02*
X003625Y012646D01*
X003625Y012648D02*
X004176Y012648D01*
X004176Y012651D02*
X003625Y012651D01*
X003625Y012653D02*
X004176Y012653D01*
X004176Y012656D02*
X003625Y012656D01*
X003625Y012658D02*
X004176Y012658D01*
X004176Y012661D02*
X003625Y012661D01*
X003625Y012663D02*
X004176Y012663D01*
X004176Y012666D02*
X003625Y012666D01*
X003625Y012668D02*
X004176Y012668D01*
X004176Y012670D02*
X003625Y012670D01*
X003625Y012673D02*
X004176Y012673D01*
X004176Y012675D02*
X003625Y012675D01*
X003625Y012678D02*
X004176Y012678D01*
X004176Y012680D02*
X003625Y012680D01*
X003625Y012683D02*
X004176Y012683D01*
X004176Y012685D02*
X003625Y012685D01*
X003625Y012688D02*
X004176Y012688D01*
X004176Y012690D02*
X003625Y012690D01*
X003625Y012693D02*
X004176Y012693D01*
X004176Y012695D02*
X003625Y012695D01*
X003625Y012698D02*
X004176Y012698D01*
X004176Y012700D02*
X003625Y012700D01*
X003625Y012703D02*
X004176Y012703D01*
X004176Y012705D02*
X003625Y012705D01*
X003625Y012708D02*
X004176Y012708D01*
X004176Y012710D02*
X003625Y012710D01*
X003625Y012713D02*
X004176Y012713D01*
X004176Y012715D02*
X003625Y012715D01*
X003625Y012718D02*
X004176Y012718D01*
X004176Y012720D02*
X003625Y012720D01*
X003625Y012723D02*
X004176Y012723D01*
X004176Y012725D02*
X003625Y012725D01*
X003625Y012728D02*
X004176Y012728D01*
X004176Y012730D02*
X003625Y012730D01*
X003625Y012732D02*
X004176Y012732D01*
X004176Y012735D02*
X003625Y012735D01*
X003625Y012737D02*
X004176Y012737D01*
X004176Y012740D02*
X003625Y012740D01*
X003625Y012742D02*
X004176Y012742D01*
X004176Y012745D02*
X003625Y012745D01*
X003625Y012747D02*
X004176Y012747D01*
X004176Y012750D02*
X003625Y012750D01*
X003625Y012752D02*
X004176Y012752D01*
X004176Y012755D02*
X003625Y012755D01*
X003625Y012757D02*
X004176Y012757D01*
X004176Y012760D02*
X003625Y012760D01*
X003625Y012762D02*
X004176Y012762D01*
X004176Y012765D02*
X003625Y012765D01*
X003625Y012767D02*
X004176Y012767D01*
X004176Y012770D02*
X003625Y012770D01*
X003625Y012772D02*
X004176Y012772D01*
X004176Y012775D02*
X003625Y012775D01*
X003625Y012777D02*
X004176Y012777D01*
X004176Y012780D02*
X003625Y012780D01*
X003625Y012782D02*
X004176Y012782D01*
X004176Y012785D02*
X003625Y012785D01*
X003625Y012787D02*
X004176Y012787D01*
X004176Y012790D02*
X003625Y012790D01*
X003625Y012792D02*
X004176Y012792D01*
X004176Y012794D02*
X003625Y012794D01*
X003625Y012797D02*
X004176Y012797D01*
X004176Y012799D02*
X003625Y012799D01*
X003625Y012802D02*
X004176Y012802D01*
X004176Y012804D02*
X003625Y012804D01*
X003625Y012807D02*
X004176Y012807D01*
X004176Y012809D02*
X003625Y012809D01*
X003625Y012812D02*
X004176Y012812D01*
X004176Y012814D02*
X003625Y012814D01*
X003625Y012817D02*
X004176Y012817D01*
X004176Y012819D02*
X003625Y012819D01*
X003625Y012822D02*
X004176Y012822D01*
X004176Y012824D02*
X003625Y012824D01*
X003625Y012827D02*
X004176Y012827D01*
X004176Y012829D02*
X003625Y012829D01*
X003625Y012832D02*
X004176Y012832D01*
X004176Y012834D02*
X003625Y012834D01*
X003625Y012837D02*
X004176Y012837D01*
X004176Y012839D02*
X003625Y012839D01*
X003625Y012842D02*
X004176Y012842D01*
X004176Y012844D02*
X003625Y012844D01*
X003625Y012847D02*
X004176Y012847D01*
X004176Y012849D02*
X003625Y012849D01*
X003625Y012852D02*
X004176Y012852D01*
X004176Y012854D02*
X003625Y012854D01*
X003625Y012856D02*
X004176Y012856D01*
X004176Y012859D02*
X003625Y012859D01*
X003625Y012861D02*
X004176Y012861D01*
X004176Y012864D02*
X003625Y012864D01*
X003625Y012866D02*
X004176Y012866D01*
X004176Y012869D02*
X003625Y012869D01*
X003625Y012871D02*
X004176Y012871D01*
X004176Y012874D02*
X003625Y012874D01*
X003625Y012876D02*
X004176Y012876D01*
X004176Y012879D02*
X003625Y012879D01*
X003625Y012881D02*
X004176Y012881D01*
X004176Y012884D02*
X003625Y012884D01*
X003625Y012886D02*
X004176Y012886D01*
X004176Y012889D02*
X003625Y012889D01*
X003625Y012891D02*
X004176Y012891D01*
X004176Y012894D02*
X003625Y012894D01*
X003625Y012896D02*
X004176Y012896D01*
X004176Y012899D02*
X003625Y012899D01*
X003625Y012901D02*
X004176Y012901D01*
X004176Y012904D02*
X003625Y012904D01*
X003625Y012906D02*
X004176Y012906D01*
X004176Y012909D02*
X003625Y012909D01*
X003625Y012911D02*
X004176Y012911D01*
X004176Y012914D02*
X003625Y012914D01*
X003625Y012916D02*
X004176Y012916D01*
X004176Y012919D02*
X003625Y012919D01*
X003625Y012921D02*
X004176Y012921D01*
X004176Y012923D02*
X003625Y012923D01*
X003625Y012926D02*
X004176Y012926D01*
X004176Y012928D02*
X003625Y012928D01*
X003625Y012931D02*
X004176Y012931D01*
X004176Y012933D02*
X003625Y012933D01*
X003625Y012936D02*
X004176Y012936D01*
X004176Y012938D02*
X003625Y012938D01*
X003625Y012941D02*
X004176Y012941D01*
X004176Y012943D02*
X003625Y012943D01*
X003625Y012946D02*
X004176Y012946D01*
X004176Y012948D02*
X003625Y012948D01*
X003625Y012951D02*
X004176Y012951D01*
X004176Y012953D02*
X003625Y012953D01*
X003625Y012956D02*
X004176Y012956D01*
X004176Y012958D02*
X003625Y012958D01*
X003625Y012961D02*
X004176Y012961D01*
X004176Y012963D02*
X003625Y012963D01*
X003625Y012966D02*
X004176Y012966D01*
X004176Y012968D02*
X003625Y012968D01*
X003625Y012971D02*
X004176Y012971D01*
X004176Y012973D02*
X003625Y012973D01*
X003625Y012976D02*
X004176Y012976D01*
X004176Y012978D02*
X003625Y012978D01*
X003625Y012981D02*
X004176Y012981D01*
X004176Y012983D02*
X003625Y012983D01*
X003625Y012985D02*
X004176Y012985D01*
X004176Y012988D02*
X003625Y012988D01*
X003625Y012990D02*
X004176Y012990D01*
X004176Y012993D02*
X003625Y012993D01*
X003625Y012995D02*
X004176Y012995D01*
X004176Y012998D02*
X003625Y012998D01*
X003625Y013000D02*
X004176Y013000D01*
X004176Y013003D02*
X003625Y013003D01*
X003625Y013005D02*
X004176Y013005D01*
X004176Y013008D02*
X003625Y013008D01*
X003625Y013010D02*
X004176Y013010D01*
X004176Y013013D02*
X003625Y013013D01*
X003625Y013015D02*
X004176Y013015D01*
X004176Y013018D02*
X003625Y013018D01*
X003625Y013020D02*
X004176Y013020D01*
X004176Y013023D02*
X003625Y013023D01*
X003625Y013025D02*
X004176Y013025D01*
X004176Y013028D02*
X003625Y013028D01*
X003625Y013030D02*
X004176Y013030D01*
X004176Y013033D02*
X003625Y013033D01*
X003625Y013035D02*
X004176Y013035D01*
X004176Y013038D02*
X003625Y013038D01*
X003625Y013040D02*
X004176Y013040D01*
X004176Y013043D02*
X003625Y013043D01*
X003625Y013045D02*
X004176Y013045D01*
X004176Y013047D02*
X003625Y013047D01*
X003625Y013050D02*
X004176Y013050D01*
X004176Y013052D02*
X003625Y013052D01*
X003625Y013055D02*
X004176Y013055D01*
X004176Y013057D02*
X003625Y013057D01*
X003625Y013060D02*
X004176Y013060D01*
X004176Y013062D02*
X003625Y013062D01*
X003625Y013065D02*
X004176Y013065D01*
X004176Y013067D02*
X003625Y013067D01*
X003625Y013070D02*
X004176Y013070D01*
X004176Y013072D02*
X003625Y013072D01*
X003625Y013075D02*
X004176Y013075D01*
X004176Y013077D02*
X003625Y013077D01*
X003625Y013080D02*
X004176Y013080D01*
X004176Y013082D02*
X003625Y013082D01*
X003625Y013085D02*
X004176Y013085D01*
X004176Y013087D02*
X003625Y013087D01*
X003625Y013090D02*
X004176Y013090D01*
X004176Y013092D02*
X003625Y013092D01*
X003625Y013095D02*
X004176Y013095D01*
X004176Y013097D02*
X003625Y013097D01*
X003625Y013100D02*
X004176Y013100D01*
X004176Y013102D02*
X003625Y013102D01*
X003625Y013105D02*
X004176Y013105D01*
X004176Y013107D02*
X003625Y013107D01*
X003625Y013109D02*
X004176Y013109D01*
X004176Y013112D02*
X003625Y013112D01*
X003625Y013114D02*
X004176Y013114D01*
X004176Y013117D02*
X003625Y013117D01*
X003625Y013119D02*
X004176Y013119D01*
X004176Y013122D02*
X003625Y013122D01*
X003625Y013124D02*
X004176Y013124D01*
X004176Y013127D02*
X003625Y013127D01*
X003625Y013129D02*
X004176Y013129D01*
X004176Y013132D02*
X003625Y013132D01*
X003625Y013134D02*
X004176Y013134D01*
X004176Y013137D02*
X003625Y013137D01*
X003625Y013139D02*
X004176Y013139D01*
X004176Y013142D02*
X003625Y013142D01*
X003625Y013144D02*
X004176Y013144D01*
X004176Y013147D02*
X003625Y013147D01*
X003625Y013149D02*
X004176Y013149D01*
X004176Y013152D02*
X003625Y013152D01*
X003625Y013154D02*
X004176Y013154D01*
X004176Y013157D02*
X003625Y013157D01*
X003625Y013159D02*
X004176Y013159D01*
X004176Y013162D02*
X003625Y013162D01*
X003625Y013164D02*
X004176Y013164D01*
X004176Y013167D02*
X003625Y013167D01*
X003625Y013169D02*
X004176Y013169D01*
X004176Y013171D02*
X003625Y013171D01*
X003625Y013174D02*
X004176Y013174D01*
X004176Y013176D02*
X003625Y013176D01*
X003625Y013179D02*
X004176Y013179D01*
X004176Y013181D02*
X003625Y013181D01*
X003625Y013184D02*
X004176Y013184D01*
X004176Y013186D02*
X003625Y013186D01*
X003625Y013189D02*
X004176Y013189D01*
X004176Y013191D02*
X003625Y013191D01*
X003625Y013194D02*
X004176Y013194D01*
X004176Y013196D02*
X003625Y013196D01*
X003625Y013199D02*
X004177Y013199D01*
X004179Y013201D02*
X003625Y013201D01*
X003625Y013204D02*
X004182Y013204D01*
X004184Y013206D02*
X003625Y013206D01*
X003625Y013209D02*
X004186Y013209D01*
X004189Y013211D02*
X003625Y013211D01*
X003625Y013214D02*
X004191Y013214D01*
X004194Y013216D02*
X003625Y013216D01*
X003625Y013219D02*
X004196Y013219D01*
X004199Y013221D02*
X003625Y013221D01*
X003625Y013224D02*
X004201Y013224D01*
X004204Y013226D02*
X003625Y013226D01*
X003625Y013229D02*
X004206Y013229D01*
X004209Y013231D02*
X003625Y013231D01*
X003625Y013234D02*
X004211Y013234D01*
X004214Y013236D02*
X003625Y013236D01*
X003625Y013238D02*
X004216Y013238D01*
X004219Y013241D02*
X003625Y013241D01*
X003625Y013243D02*
X004221Y013243D01*
X004224Y013246D02*
X003625Y013246D01*
X003625Y013248D02*
X004226Y013248D01*
X004229Y013251D02*
X003625Y013251D01*
X003625Y013253D02*
X004231Y013253D01*
X004234Y013256D02*
X003625Y013256D01*
X003625Y013258D02*
X004236Y013258D01*
X004239Y013261D02*
X003625Y013261D01*
X003625Y013263D02*
X004241Y013263D01*
X004244Y013266D02*
X003625Y013266D01*
X003625Y013268D02*
X004246Y013268D01*
X004249Y013271D02*
X003625Y013271D01*
X003625Y013273D02*
X004251Y013273D01*
X004253Y013276D02*
X003625Y013276D01*
X003625Y013278D02*
X004256Y013278D01*
X004258Y013281D02*
X003625Y013281D01*
X003625Y013283D02*
X004261Y013283D01*
X004263Y013286D02*
X003625Y013286D01*
X003625Y013288D02*
X004266Y013288D01*
X004268Y013291D02*
X003625Y013291D01*
X003625Y013293D02*
X004271Y013293D01*
X004273Y013296D02*
X003625Y013296D01*
X003628Y013496D02*
X005473Y013496D01*
X005470Y013499D02*
X003630Y013499D01*
X003633Y013501D02*
X005468Y013501D01*
X005465Y013504D02*
X003635Y013504D01*
X003638Y013506D02*
X005463Y013506D01*
X005460Y013509D02*
X003640Y013509D01*
X003643Y013511D02*
X005458Y013511D01*
X005455Y013514D02*
X003645Y013514D01*
X003648Y013516D02*
X005453Y013516D01*
X005450Y013519D02*
X003650Y013519D01*
X003653Y013521D02*
X005448Y013521D01*
X005445Y013524D02*
X003655Y013524D01*
X003658Y013526D02*
X005443Y013526D01*
X005440Y013529D02*
X003660Y013529D01*
X003662Y013531D02*
X005438Y013531D01*
X005436Y013534D02*
X003665Y013534D01*
X003667Y013536D02*
X005433Y013536D01*
X005431Y013539D02*
X003670Y013539D01*
X003672Y013541D02*
X005428Y013541D01*
X005426Y013544D02*
X003675Y013544D01*
X003677Y013546D02*
X005423Y013546D01*
X005421Y013549D02*
X003680Y013549D01*
X003682Y013551D02*
X005418Y013551D01*
X005416Y013553D02*
X003685Y013553D01*
X003687Y013556D02*
X005413Y013556D01*
X005411Y013558D02*
X003690Y013558D01*
X003692Y013561D02*
X005408Y013561D01*
X005406Y013563D02*
X003695Y013563D01*
X003697Y013566D02*
X005403Y013566D01*
X005401Y013568D02*
X003700Y013568D01*
X003702Y013571D02*
X005398Y013571D01*
X005396Y013573D02*
X003705Y013573D01*
X003707Y013576D02*
X005393Y013576D01*
X005391Y013578D02*
X003710Y013578D01*
X003712Y013581D02*
X005388Y013581D01*
X005386Y013583D02*
X003715Y013583D01*
X003717Y013586D02*
X005383Y013586D01*
X005381Y013588D02*
X003720Y013588D01*
X003722Y013591D02*
X005378Y013591D01*
X005376Y013593D02*
X003724Y013593D01*
X003727Y013596D02*
X005374Y013596D01*
X005371Y013598D02*
X003729Y013598D01*
X003732Y013601D02*
X005369Y013601D01*
X005366Y013603D02*
X003734Y013603D01*
X003737Y013606D02*
X005364Y013606D01*
X005361Y013608D02*
X003739Y013608D01*
X003742Y013611D02*
X005359Y013611D01*
X005356Y013613D02*
X003744Y013613D01*
X003747Y013615D02*
X005354Y013615D01*
X005351Y013618D02*
X003749Y013618D01*
X003752Y013620D02*
X005349Y013620D01*
X005346Y013623D02*
X003754Y013623D01*
X003757Y013625D02*
X005344Y013625D01*
X005341Y013628D02*
X003759Y013628D01*
X003762Y013630D02*
X005339Y013630D01*
X005336Y013633D02*
X003764Y013633D01*
X003767Y013635D02*
X005334Y013635D01*
X005331Y013638D02*
X003769Y013638D01*
X003772Y013640D02*
X005329Y013640D01*
X005326Y013643D02*
X003774Y013643D01*
X003777Y013645D02*
X005324Y013645D01*
X005321Y013648D02*
X003779Y013648D01*
X003782Y013650D02*
X005319Y013650D01*
X005316Y013653D02*
X003784Y013653D01*
X003786Y013655D02*
X005314Y013655D01*
X005311Y013658D02*
X003789Y013658D01*
X003791Y013660D02*
X005309Y013660D01*
X005307Y013663D02*
X003794Y013663D01*
X003796Y013665D02*
X005304Y013665D01*
X005302Y013668D02*
X003799Y013668D01*
X003801Y013670D02*
X005299Y013670D01*
X005297Y013673D02*
X003804Y013673D01*
X003806Y013675D02*
X005294Y013675D01*
X005292Y013677D02*
X003809Y013677D01*
X003811Y013680D02*
X005289Y013680D01*
X005287Y013682D02*
X003814Y013682D01*
X003816Y013685D02*
X005284Y013685D01*
X005282Y013687D02*
X003819Y013687D01*
X003821Y013690D02*
X005279Y013690D01*
X005277Y013692D02*
X003824Y013692D01*
X003826Y013695D02*
X005274Y013695D01*
X005272Y013697D02*
X003829Y013697D01*
X003831Y013700D02*
X005269Y013700D01*
X005267Y013702D02*
X003834Y013702D01*
X003836Y013705D02*
X005264Y013705D01*
X005262Y013707D02*
X003839Y013707D01*
X003841Y013710D02*
X005259Y013710D01*
X005257Y013712D02*
X003844Y013712D01*
X003846Y013715D02*
X005254Y013715D01*
X005252Y013717D02*
X003849Y013717D01*
X003851Y013720D02*
X005249Y013720D01*
X005247Y013722D02*
X003853Y013722D01*
X003856Y013725D02*
X005245Y013725D01*
X005242Y013727D02*
X003858Y013727D01*
X003861Y013730D02*
X005240Y013730D01*
X005237Y013732D02*
X003863Y013732D01*
X003866Y013735D02*
X005235Y013735D01*
X005232Y013737D02*
X003868Y013737D01*
X003871Y013739D02*
X005230Y013739D01*
X005227Y013742D02*
X003873Y013742D01*
X003876Y013744D02*
X005225Y013744D01*
X005222Y013747D02*
X003878Y013747D01*
X003881Y013749D02*
X005220Y013749D01*
X005217Y013752D02*
X003883Y013752D01*
X003886Y013754D02*
X005215Y013754D01*
X005212Y013757D02*
X003888Y013757D01*
X003891Y013759D02*
X005210Y013759D01*
X005207Y013762D02*
X003893Y013762D01*
X003896Y013764D02*
X005205Y013764D01*
X005202Y013767D02*
X003898Y013767D01*
X003901Y013769D02*
X005200Y013769D01*
X005197Y013772D02*
X003903Y013772D01*
X003906Y013774D02*
X005195Y013774D01*
X005192Y013777D02*
X003908Y013777D01*
X003911Y013779D02*
X005190Y013779D01*
X005187Y013782D02*
X003913Y013782D01*
X003915Y013784D02*
X005185Y013784D01*
X005183Y013787D02*
X003918Y013787D01*
X003920Y013789D02*
X005180Y013789D01*
X005178Y013792D02*
X003923Y013792D01*
X003925Y013794D02*
X005175Y013794D01*
X005173Y013797D02*
X003928Y013797D01*
X003930Y013799D02*
X005170Y013799D01*
X005168Y013801D02*
X003933Y013801D01*
X003935Y013804D02*
X005165Y013804D01*
X005163Y013806D02*
X003938Y013806D01*
X003940Y013809D02*
X005160Y013809D01*
X005158Y013811D02*
X003943Y013811D01*
X003945Y013814D02*
X005155Y013814D01*
X005153Y013816D02*
X003948Y013816D01*
X003950Y013819D02*
X005150Y013819D01*
X005148Y013821D02*
X003953Y013821D01*
X003955Y013824D02*
X005145Y013824D01*
X005143Y013826D02*
X003958Y013826D01*
X003960Y013829D02*
X005140Y013829D01*
X005138Y013831D02*
X003963Y013831D01*
X003965Y013834D02*
X005135Y013834D01*
X005133Y013836D02*
X003968Y013836D01*
X003970Y013839D02*
X005130Y013839D01*
X005128Y013841D02*
X003973Y013841D01*
X003975Y013844D02*
X005125Y013844D01*
X005123Y013846D02*
X003977Y013846D01*
X003980Y013849D02*
X005121Y013849D01*
X005118Y013851D02*
X003982Y013851D01*
X003985Y013854D02*
X005116Y013854D01*
X005113Y013856D02*
X003987Y013856D01*
X003990Y013859D02*
X005111Y013859D01*
X005108Y013861D02*
X003992Y013861D01*
X003995Y013864D02*
X005106Y013864D01*
X005103Y013866D02*
X003997Y013866D01*
X004000Y013868D02*
X005101Y013868D01*
X005098Y013871D02*
X004002Y013871D01*
X004005Y013873D02*
X005096Y013873D01*
X005093Y013876D02*
X004007Y013876D01*
X004010Y013878D02*
X005091Y013878D01*
X005088Y013881D02*
X004012Y013881D01*
X004015Y013883D02*
X005086Y013883D01*
X005083Y013886D02*
X004017Y013886D01*
X004020Y013888D02*
X005081Y013888D01*
X005078Y013891D02*
X004022Y013891D01*
X004025Y013893D02*
X005076Y013893D01*
X005073Y013896D02*
X004027Y013896D01*
X004030Y013898D02*
X005071Y013898D01*
X005068Y013901D02*
X004032Y013901D01*
X004035Y013903D02*
X005066Y013903D01*
X005063Y013906D02*
X004037Y013906D01*
X005212Y012259D02*
X005475Y012259D01*
X005475Y012261D02*
X005218Y012261D01*
X005224Y012264D02*
X005475Y012264D01*
X005475Y012266D02*
X005229Y012266D01*
X005235Y012269D02*
X005475Y012269D01*
X005475Y012271D02*
X005241Y012271D01*
X005247Y012274D02*
X005475Y012274D01*
X005475Y012276D02*
X005252Y012276D01*
X005258Y012279D02*
X005475Y012279D01*
X005475Y012281D02*
X005264Y012281D01*
X005270Y012284D02*
X005475Y012284D01*
X005475Y012286D02*
X005276Y012286D01*
X005281Y012289D02*
X005475Y012289D01*
X005475Y012291D02*
X005287Y012291D01*
X005293Y012293D02*
X005475Y012293D01*
X005475Y012296D02*
X005299Y012296D01*
X005305Y012298D02*
X005475Y012298D01*
X005475Y012301D02*
X005310Y012301D01*
X005316Y012303D02*
X005475Y012303D01*
X005475Y012306D02*
X005322Y012306D01*
X005328Y012308D02*
X005475Y012308D01*
X005475Y012311D02*
X005334Y012311D01*
X005339Y012313D02*
X005475Y012313D01*
X005475Y012316D02*
X005345Y012316D01*
X005351Y012318D02*
X005475Y012318D01*
X005475Y012321D02*
X005357Y012321D01*
X005362Y012323D02*
X005475Y012323D01*
X005475Y012326D02*
X005368Y012326D01*
X005374Y012328D02*
X005475Y012328D01*
X005475Y012331D02*
X005380Y012331D01*
X005386Y012333D02*
X005475Y012333D01*
X005475Y012336D02*
X005391Y012336D01*
X005397Y012338D02*
X005475Y012338D01*
X005475Y012341D02*
X005403Y012341D01*
X005409Y012343D02*
X005475Y012343D01*
X005475Y012346D02*
X005415Y012346D01*
X005420Y012348D02*
X005475Y012348D01*
X005475Y012351D02*
X005426Y012351D01*
X005432Y012353D02*
X005475Y012353D01*
X005475Y012355D02*
X005438Y012355D01*
X005443Y012358D02*
X005475Y012358D01*
X005475Y012360D02*
X005449Y012360D01*
X005455Y012363D02*
X005475Y012363D01*
X005475Y012365D02*
X005461Y012365D01*
X005467Y012368D02*
X005475Y012368D01*
X005475Y012370D02*
X005472Y012370D01*
X005475Y011993D02*
X003625Y011993D01*
X003625Y011991D02*
X005475Y011991D01*
X005475Y011988D02*
X003625Y011988D01*
X003625Y011986D02*
X005475Y011986D01*
X005475Y011983D02*
X003625Y011983D01*
X003625Y011981D02*
X005475Y011981D01*
X005475Y011978D02*
X003625Y011978D01*
X003625Y011976D02*
X005475Y011976D01*
X005475Y011974D02*
X003625Y011974D01*
X003625Y011971D02*
X005475Y011971D01*
X005475Y011969D02*
X003625Y011969D01*
X003625Y011966D02*
X005475Y011966D01*
X005475Y011964D02*
X003625Y011964D01*
X003625Y011961D02*
X005475Y011961D01*
X005475Y011959D02*
X003625Y011959D01*
X003625Y011956D02*
X005475Y011956D01*
X005475Y011954D02*
X003625Y011954D01*
X003625Y011951D02*
X005475Y011951D01*
X005475Y011949D02*
X003625Y011949D01*
X003625Y011946D02*
X005475Y011946D01*
X005475Y011944D02*
X003625Y011944D01*
X003625Y011941D02*
X005475Y011941D01*
X005475Y011939D02*
X003625Y011939D01*
X003625Y011936D02*
X005475Y011936D01*
X005475Y011934D02*
X003625Y011934D01*
X003625Y011931D02*
X005475Y011931D01*
X005475Y011929D02*
X003625Y011929D01*
X003625Y011926D02*
X005475Y011926D01*
X005475Y011924D02*
X003625Y011924D01*
X003625Y011921D02*
X005475Y011921D01*
X005475Y011919D02*
X003625Y011919D01*
X003625Y011916D02*
X005475Y011916D01*
X005475Y011914D02*
X003625Y011914D01*
X003625Y011911D02*
X005475Y011911D01*
X005475Y011909D02*
X003625Y011909D01*
X003625Y011907D02*
X005475Y011907D01*
X005475Y011904D02*
X003625Y011904D01*
X003625Y011902D02*
X005475Y011902D01*
X005475Y011899D02*
X003625Y011899D01*
X003625Y011897D02*
X005475Y011897D01*
X005475Y011894D02*
X003625Y011894D01*
X003625Y011892D02*
X005475Y011892D01*
X005475Y011889D02*
X003625Y011889D01*
X003625Y011887D02*
X005475Y011887D01*
X005475Y011884D02*
X003625Y011884D01*
X003625Y011882D02*
X005475Y011882D01*
X005475Y011879D02*
X003625Y011879D01*
X003625Y011877D02*
X005475Y011877D01*
X005475Y011874D02*
X003625Y011874D01*
X003625Y011872D02*
X005475Y011872D01*
X005475Y011869D02*
X003625Y011869D01*
X003625Y011867D02*
X005475Y011867D01*
X005475Y011864D02*
X003625Y011864D01*
X003625Y011862D02*
X005475Y011862D01*
X005475Y011859D02*
X003625Y011859D01*
X003625Y011857D02*
X005475Y011857D01*
X005475Y011854D02*
X003625Y011854D01*
X003625Y011852D02*
X005475Y011852D01*
X005475Y011849D02*
X003625Y011849D01*
X003625Y011847D02*
X005475Y011847D01*
X005475Y011845D02*
X003625Y011845D01*
X003625Y011842D02*
X005475Y011842D01*
X005475Y011840D02*
X003625Y011840D01*
X003625Y011837D02*
X005475Y011837D01*
X005475Y011835D02*
X003625Y011835D01*
X003625Y011832D02*
X005475Y011832D01*
X005475Y011830D02*
X003625Y011830D01*
X003625Y011827D02*
X005475Y011827D01*
X005475Y011825D02*
X003625Y011825D01*
X003628Y011817D02*
X005472Y011817D01*
X005470Y011815D02*
X003631Y011815D01*
X003633Y011812D02*
X005467Y011812D01*
X005465Y011810D02*
X003636Y011810D01*
X003638Y011807D02*
X005462Y011807D01*
X005460Y011805D02*
X003641Y011805D01*
X003643Y011802D02*
X005457Y011802D01*
X005455Y011800D02*
X003646Y011800D01*
X003648Y011797D02*
X005452Y011797D01*
X005450Y011795D02*
X003651Y011795D01*
X003653Y011792D02*
X005447Y011792D01*
X005445Y011790D02*
X003656Y011790D01*
X003658Y011787D02*
X005442Y011787D01*
X005440Y011785D02*
X003661Y011785D01*
X003663Y011783D02*
X005437Y011783D01*
X005435Y011780D02*
X003665Y011780D01*
X003668Y011778D02*
X005433Y011778D01*
X005430Y011775D02*
X003670Y011775D01*
X003673Y011773D02*
X005428Y011773D01*
X005425Y011770D02*
X003675Y011770D01*
X003678Y011768D02*
X005423Y011768D01*
X005420Y011765D02*
X003680Y011765D01*
X003683Y011763D02*
X005418Y011763D01*
X005415Y011760D02*
X003685Y011760D01*
X003688Y011758D02*
X005413Y011758D01*
X005410Y011755D02*
X003690Y011755D01*
X003693Y011753D02*
X005408Y011753D01*
X005405Y011750D02*
X003695Y011750D01*
X003698Y011748D02*
X005403Y011748D01*
X005400Y011745D02*
X003700Y011745D01*
X003703Y011743D02*
X005398Y011743D01*
X005395Y011740D02*
X003705Y011740D01*
X003708Y011738D02*
X005393Y011738D01*
X005390Y011735D02*
X003710Y011735D01*
X003713Y011733D02*
X005388Y011733D01*
X005385Y011730D02*
X003715Y011730D01*
X003718Y011728D02*
X005383Y011728D01*
X005380Y011725D02*
X003720Y011725D01*
X003723Y011723D02*
X005378Y011723D01*
X005375Y011721D02*
X003725Y011721D01*
X003727Y011718D02*
X005373Y011718D01*
X005371Y011716D02*
X003730Y011716D01*
X003732Y011713D02*
X005368Y011713D01*
X005366Y011711D02*
X003735Y011711D01*
X003737Y011708D02*
X005363Y011708D01*
X005361Y011706D02*
X003740Y011706D01*
X003742Y011703D02*
X005358Y011703D01*
X005356Y011701D02*
X003745Y011701D01*
X003747Y011698D02*
X005353Y011698D01*
X005351Y011696D02*
X003750Y011696D01*
X003752Y011693D02*
X005348Y011693D01*
X005346Y011691D02*
X003755Y011691D01*
X003757Y011688D02*
X005343Y011688D01*
X005341Y011686D02*
X003760Y011686D01*
X003762Y011683D02*
X005338Y011683D01*
X005336Y011681D02*
X003765Y011681D01*
X003767Y011678D02*
X005333Y011678D01*
X005331Y011676D02*
X003770Y011676D01*
X003772Y011673D02*
X005328Y011673D01*
X005326Y011671D02*
X003775Y011671D01*
X003777Y011668D02*
X005323Y011668D01*
X005321Y011666D02*
X003780Y011666D01*
X003782Y011663D02*
X005318Y011663D01*
X005316Y011661D02*
X003785Y011661D01*
X003787Y011659D02*
X005313Y011659D01*
X005311Y011656D02*
X003789Y011656D01*
X003792Y011654D02*
X005309Y011654D01*
X005306Y011651D02*
X003794Y011651D01*
X003797Y011649D02*
X005304Y011649D01*
X005301Y011646D02*
X003799Y011646D01*
X003802Y011644D02*
X005299Y011644D01*
X005296Y011641D02*
X003804Y011641D01*
X003807Y011639D02*
X005294Y011639D01*
X005291Y011636D02*
X003809Y011636D01*
X003812Y011634D02*
X005289Y011634D01*
X005286Y011631D02*
X003814Y011631D01*
X003817Y011629D02*
X005284Y011629D01*
X005281Y011626D02*
X003819Y011626D01*
X003822Y011624D02*
X005279Y011624D01*
X005276Y011621D02*
X003824Y011621D01*
X003827Y011619D02*
X005274Y011619D01*
X005271Y011616D02*
X003829Y011616D01*
X003832Y011614D02*
X005269Y011614D01*
X005266Y011611D02*
X003834Y011611D01*
X003837Y011609D02*
X005264Y011609D01*
X005261Y011606D02*
X003839Y011606D01*
X003842Y011604D02*
X005259Y011604D01*
X005256Y011601D02*
X003844Y011601D01*
X003847Y011599D02*
X005254Y011599D01*
X005251Y011596D02*
X003849Y011596D01*
X003851Y011594D02*
X005249Y011594D01*
X005246Y011592D02*
X003854Y011592D01*
X003856Y011589D02*
X005244Y011589D01*
X005242Y011587D02*
X003859Y011587D01*
X003861Y011584D02*
X005239Y011584D01*
X005237Y011582D02*
X003864Y011582D01*
X003866Y011579D02*
X005234Y011579D01*
X005232Y011577D02*
X003869Y011577D01*
X003871Y011574D02*
X005229Y011574D01*
X005227Y011572D02*
X003874Y011572D01*
X003876Y011569D02*
X005224Y011569D01*
X005222Y011567D02*
X003879Y011567D01*
X003881Y011564D02*
X005219Y011564D01*
X005217Y011562D02*
X003884Y011562D01*
X003886Y011559D02*
X005214Y011559D01*
X005212Y011557D02*
X003889Y011557D01*
X003891Y011554D02*
X005209Y011554D01*
X005207Y011552D02*
X003894Y011552D01*
X003896Y011549D02*
X005204Y011549D01*
X005202Y011547D02*
X003899Y011547D01*
X003901Y011544D02*
X005199Y011544D01*
X005197Y011542D02*
X003904Y011542D01*
X003906Y011539D02*
X005194Y011539D01*
X005192Y011537D02*
X003909Y011537D01*
X003911Y011534D02*
X005189Y011534D01*
X005187Y011532D02*
X003914Y011532D01*
X003916Y011530D02*
X005184Y011530D01*
X005182Y011527D02*
X003918Y011527D01*
X003921Y011525D02*
X005180Y011525D01*
X005177Y011522D02*
X003923Y011522D01*
X003926Y011520D02*
X005175Y011520D01*
X005172Y011517D02*
X003928Y011517D01*
X003931Y011515D02*
X005170Y011515D01*
X005167Y011512D02*
X003933Y011512D01*
X003936Y011510D02*
X005165Y011510D01*
X005162Y011507D02*
X003938Y011507D01*
X003941Y011505D02*
X005160Y011505D01*
X005157Y011502D02*
X003943Y011502D01*
X003946Y011500D02*
X005155Y011500D01*
X005152Y011497D02*
X003948Y011497D01*
X003951Y011495D02*
X005150Y011495D01*
X005147Y011492D02*
X003953Y011492D01*
X003956Y011490D02*
X005145Y011490D01*
X005142Y011487D02*
X003958Y011487D01*
X003961Y011485D02*
X005140Y011485D01*
X005137Y011482D02*
X003963Y011482D01*
X003966Y011480D02*
X005135Y011480D01*
X005132Y011477D02*
X003968Y011477D01*
X003971Y011475D02*
X005130Y011475D01*
X005127Y011472D02*
X003973Y011472D01*
X003976Y011470D02*
X005125Y011470D01*
X005122Y011468D02*
X003978Y011468D01*
X003980Y011465D02*
X005120Y011465D01*
X005118Y011463D02*
X003983Y011463D01*
X003985Y011460D02*
X005115Y011460D01*
X005113Y011458D02*
X003988Y011458D01*
X003990Y011455D02*
X005110Y011455D01*
X005108Y011453D02*
X003993Y011453D01*
X003995Y011450D02*
X005105Y011450D01*
X005103Y011448D02*
X003998Y011448D01*
X004000Y011445D02*
X005100Y011445D01*
X005098Y011443D02*
X004003Y011443D01*
X004005Y011440D02*
X005095Y011440D01*
X005093Y011438D02*
X004008Y011438D01*
X004010Y011435D02*
X005090Y011435D01*
X005088Y011433D02*
X004013Y011433D01*
X004015Y011430D02*
X005085Y011430D01*
X005083Y011428D02*
X004018Y011428D01*
X004020Y011425D02*
X005080Y011425D01*
X005078Y011423D02*
X004023Y011423D01*
X004025Y011420D02*
X005075Y011420D01*
X005073Y011418D02*
X004028Y011418D01*
X004030Y011415D02*
X005070Y011415D01*
X005068Y011413D02*
X004033Y011413D01*
X004035Y011410D02*
X005065Y011410D01*
X005063Y011408D02*
X004038Y011408D01*
M02*
